# xmcd CD database file
#
# Track frame offsets:
#	150
#	16202
#	33884
#	50817
#	67982
#	87189
#	102553
#	118795
#	136351
#	153200
#	167338
#	182798
#	200077
#	225304
#	255595
#	272868
#	287971
#
# Disc length: 4043 seconds
#
# Revision: 0
# Processed by: cddbd v1.5.1PL2 Copyright (c) Steve Scherf et al.
# Submitted via: CDex 1.51
#
DISCID=eb0fc911
DTITLE=Nadine - You and I
DYEAR=1900
DGENRE=Country
TTITLE0=How do you do
TTITLE1=Kom dans met my
TTITLE2=Dankie liewe ouma
TTITLE3=You and I
TTITLE4=Mit dir Lieben
TTITLE5=Rabbedoe
TTITLE6=Does your mother know
TTITLE7=Hy's 'n miljoener
TTITLE8=Thank you
TTITLE9=A Quatre Pas D'Ici
TTITLE10=Die lewe roep my
TTITLE11=Automatisch
TTITLE12=16th Birthday Medley
TTITLE13=Summer Medley
TTITLE14=Itsy Bitsy Teenie Weenie Yellow Polka Dot Bikini
TTITLE15=Song for the world
TTITLE16=16 Jaar oud
EXTD=
EXTT0=
EXTT1=
EXTT2=
EXTT3=
EXTT4=
EXTT5=
EXTT6=
EXTT7=
EXTT8=
EXTT9=
EXTT10=
EXTT11=
EXTT12=
EXTT13=
EXTT14=
EXTT15=
EXTT16=
PLAYORDER=
